<svg id="svg" version="1.1" xmlns="http://www.w3.org/2000/svg" xmlns:xlink="http://www.w3.org/1999/xlink" width="400" height="400" viewBox="0, 0, 400,400"><g id="svgg"><path id="path0" d="M59.431 24.680 C 42.676 29.185,29.010 42.997,24.615 59.869 C 23.594 63.789,23.438 78.205,23.438 168.133 L 23.438 271.875 28.100 271.875 L 32.763 271.875 32.984 168.945 L 33.205 66.016 34.934 60.938 C 39.236 48.300,48.290 39.232,60.881 34.949 L 66.016 33.203 173.633 32.984 L 281.250 32.765 281.250 28.101 L 281.250 23.438 172.461 23.489 C 79.680 23.533,63.048 23.708,59.431 24.680 M287.500 27.987 L 287.500 32.632 311.133 33.005 C 332.786 33.346,335.153 33.518,339.391 35.052 C 352.396 39.759,361.084 48.640,365.066 61.296 L 366.797 66.797 366.797 200.000 L 366.797 333.203 365.072 338.672 C 361.044 351.437,352.104 360.536,339.211 364.991 L 333.984 366.797 200.391 366.797 L 66.797 366.797 61.296 365.066 C 40.270 358.451,33.609 346.398,33.002 313.867 L 32.627 293.750 27.979 293.750 L 23.332 293.750 23.596 316.602 C 23.858 339.228,23.881 339.505,25.942 344.685 C 31.477 358.597,40.871 368.018,55.078 373.906 L 60.547 376.172 200.000 376.172 L 339.453 376.172 344.685 374.074 C 358.626 368.484,368.484 358.626,374.074 344.685 L 376.172 339.453 376.172 200.000 L 376.172 60.547 374.074 55.315 C 368.482 41.368,358.599 31.488,344.685 25.936 L 339.453 23.848 313.477 23.595 L 287.500 23.342 287.500 27.987 M160.547 81.013 C 152.737 81.718,137.948 83.754,130.469 85.155 C 125.957 86.000,120.156 87.079,117.578 87.553 C 97.199 91.298,85.530 104.131,81.691 127.020 L 81.156 130.211 86.276 131.597 C 92.124 133.180,93.750 132.873,93.750 130.185 C 93.750 115.420,105.508 102.515,121.875 99.315 C 128.581 98.005,140.121 96.090,141.307 96.092 C 142.663 96.094,140.935 98.425,139.553 98.459 C 138.318 98.489,126.227 107.862,121.294 112.614 C 112.526 121.059,117.528 128.703,128.892 124.225 C 158.226 112.662,195.043 107.235,219.225 110.909 C 236.091 113.471,257.803 118.938,270.907 123.921 C 280.455 127.552,286.261 123.830,282.474 116.507 C 280.783 113.238,262.744 98.438,260.450 98.438 C 259.964 98.438,259.129 97.910,258.594 97.266 C 257.234 95.627,261.601 96.085,278.125 99.315 C 293.463 102.314,301.260 109.616,304.961 124.449 C 305.627 127.115,307.275 133.516,308.623 138.672 C 309.972 143.828,311.339 149.805,311.660 151.953 C 311.982 154.102,313.519 162.012,315.076 169.531 C 319.013 188.546,322.527 211.645,323.519 225.028 C 324.511 238.416,323.606 237.033,330.928 236.347 L 336.925 235.785 336.415 230.978 C 336.134 228.335,335.557 221.953,335.134 216.797 C 334.710 211.641,333.463 202.148,332.363 195.703 C 331.262 189.258,330.021 181.348,329.604 178.125 C 329.188 174.902,327.630 166.992,326.142 160.547 C 324.655 154.102,323.437 148.183,323.438 147.394 C 323.438 146.606,322.220 141.332,320.733 135.676 C 319.245 130.019,317.494 123.192,316.842 120.504 C 312.393 102.180,301.050 91.209,282.813 87.592 C 249.275 80.941,216.206 78.325,212.500 82.031 C 209.899 84.632,210.779 92.188,213.683 92.188 C 215.556 92.188,233.708 98.398,237.891 100.470 C 240.039 101.535,241.221 102.242,240.517 102.042 C 222.383 96.892,182.349 96.489,162.109 101.252 C 161.173 101.472,161.486 101.077,162.891 100.265 C 165.443 98.791,184.641 92.188,186.376 92.188 C 188.999 92.188,190.014 85.299,187.846 82.205 C 186.638 80.480,173.044 79.886,160.547 81.013 M77.820 141.268 C 77.376 141.986,75.719 151.764,75.996 152.033 C 76.362 152.390,85.823 154.688,86.925 154.688 C 87.691 154.688,88.226 153.574,88.520 151.367 C 88.762 149.541,89.197 146.780,89.486 145.231 C 90.010 142.420,90.005 142.414,86.457 141.520 C 82.291 140.471,78.383 140.357,77.820 141.268 M72.747 165.349 C 72.311 167.005,71.577 170.645,71.116 173.438 C 66.791 199.672,65.476 208.679,64.842 216.406 C 64.437 221.348,63.568 230.984,62.912 237.821 C 59.659 271.711,64.964 286.903,82.813 294.803 C 87.916 297.062,101.091 301.667,104.264 302.302 C 106.001 302.649,111.641 304.007,116.797 305.319 C 145.227 312.552,179.819 316.191,182.421 312.221 C 185.413 307.655,190.045 279.857,188.343 276.678 L 187.445 275.000 200.000 275.000 L 212.555 275.000 211.657 276.678 C 209.413 280.871,215.349 311.461,218.761 313.287 C 223.506 315.827,259.301 311.400,283.203 305.319 C 288.359 304.007,293.999 302.649,295.736 302.302 C 324.518 296.547,338.624 281.481,338.407 256.725 C 338.303 244.784,338.954 245.774,331.655 246.458 L 325.740 247.012 325.893 255.342 C 326.128 268.105,323.055 275.435,315.012 281.299 C 305.735 288.062,267.594 297.457,235.627 300.852 C 226.597 301.812,227.296 302.333,225.383 293.215 C 223.736 285.368,223.617 285.532,231.515 284.739 C 247.364 283.147,268.731 273.087,283.398 260.312 C 292.448 252.430,288.648 243.506,277.966 247.555 C 252.633 257.160,214.242 263.791,191.992 262.406 C 171.579 261.136,140.393 254.515,122.034 247.555 C 111.667 243.625,107.486 252.112,115.985 259.835 C 129.695 272.294,152.559 283.140,168.485 284.739 C 176.383 285.532,176.264 285.368,174.617 293.215 C 172.700 302.352,173.459 301.809,163.984 300.808 C 132.715 297.501,94.149 287.977,84.988 281.299 C 74.468 273.629,72.925 266.538,75.374 237.109 C 77.389 212.904,79.405 197.721,83.627 174.953 C 85.691 163.821,85.797 164.367,81.445 163.776 C 79.404 163.499,76.791 163.061,75.638 162.805 C 73.731 162.380,73.470 162.609,72.747 165.349 M134.159 170.594 C 120.112 174.547,112.109 186.213,112.109 202.734 C 112.109 224.207,124.563 236.418,145.843 235.812 L 155.859 235.527 161.438 232.232 C 181.080 220.631,184.311 194.028,168.004 178.164 C 160.136 170.510,145.828 167.309,134.159 170.594 M244.529 170.539 C 208.390 180.772,217.276 235.938,255.063 235.938 C 275.859 235.938,287.891 223.768,287.891 202.734 C 287.891 178.937,267.731 163.970,244.529 170.539 M155.976 184.816 C 173.014 195.673,166.307 222.769,146.255 224.083 C 133.797 224.899,122.863 214.077,123.567 201.626 C 124.461 185.794,142.680 176.345,155.976 184.816 M266.633 185.041 C 276.350 191.733,279.298 203.966,273.454 213.348 C 260.549 234.063,230.628 222.565,234.651 198.438 C 237.022 184.215,254.688 176.816,266.633 185.041 M23.438 282.813 L 23.438 287.500 28.125 287.500 L 32.813 287.500 32.813 282.813 L 32.813 278.125 28.125 278.125 L 23.438 278.125 23.438 282.813 " stroke="none" fill="#000000" fill-rule="evenodd"></path></g></svg>