<svg id="svg" xmlns="http://www.w3.org/2000/svg" xmlns:xlink="http://www.w3.org/1999/xlink" width="400" height="400" viewBox="0, 0, 400,400"><g id="svgg"><path id="path0" d="M59.431 24.680 C 42.676 29.185,29.010 42.997,24.615 59.869 C 23.594 63.789,23.438 78.205,23.438 168.133 L 23.438 271.875 28.100 271.875 L 32.763 271.875 32.984 168.945 L 33.205 66.016 34.934 60.938 C 39.236 48.300,48.290 39.232,60.881 34.949 L 66.016 33.203 173.633 32.984 L 281.250 32.765 281.250 28.101 L 281.250 23.438 172.461 23.489 C 79.680 23.533,63.048 23.708,59.431 24.680 M287.500 27.987 L 287.500 32.632 311.133 33.005 C 332.786 33.346,335.153 33.518,339.391 35.052 C 352.396 39.759,361.084 48.640,365.066 61.296 L 366.797 66.797 366.797 200.000 L 366.797 333.203 365.066 338.704 C 361.090 351.342,352.494 360.139,339.391 364.984 C 334.919 366.637,333.515 366.704,297.070 367.005 L 259.375 367.317 259.375 300.455 L 259.375 233.594 279.669 233.594 C 299.871 233.594,299.969 233.586,301.057 231.836 C 302.063 230.217,307.102 179.679,307.050 171.724 C 307.016 166.539,306.406 166.406,282.564 166.406 L 261.569 166.406 261.839 155.485 C 262.105 144.754,262.147 144.527,264.274 142.400 L 266.438 140.234 285.367 139.844 C 295.779 139.629,304.736 139.169,305.273 138.821 C 306.788 137.841,306.679 83.360,305.161 82.100 C 303.207 80.479,247.024 80.571,240.144 82.207 C 207.556 89.954,193.235 110.106,192.384 149.414 L 192.016 166.406 179.775 166.406 C 169.961 166.406,167.191 166.647,165.799 167.622 L 164.063 168.839 164.063 200.279 C 164.063 223.690,164.302 231.958,165.000 232.656 C 165.655 233.311,169.896 233.594,179.063 233.594 L 192.188 233.594 192.188 300.429 L 192.188 367.264 129.102 367.014 C 57.746 366.731,61.469 367.053,51.116 360.270 C 36.759 350.866,33.539 342.614,33.002 313.867 L 32.627 293.750 27.979 293.750 L 23.332 293.750 23.596 316.602 C 23.858 339.228,23.881 339.505,25.942 344.685 C 31.477 358.597,40.871 368.018,55.078 373.906 L 60.547 376.172 200.000 376.172 L 339.453 376.172 344.685 374.074 C 358.626 368.484,368.484 358.626,374.074 344.685 L 376.172 339.453 376.172 200.000 L 376.172 60.547 374.074 55.315 C 368.482 41.368,358.599 31.488,344.685 25.936 L 339.453 23.848 313.477 23.595 L 287.500 23.342 287.500 27.987 M293.652 91.113 L 296.094 91.602 296.094 110.645 L 296.094 129.688 282.460 129.688 C 254.679 129.688,251.563 132.765,251.563 160.195 C 251.563 178.193,249.146 176.563,275.817 176.563 L 296.946 176.563 296.535 179.102 C 296.309 180.498,295.396 190.254,294.507 200.781 C 293.617 211.309,292.729 220.696,292.533 221.642 C 292.179 223.353,292.069 223.364,272.287 223.595 C 254.423 223.804,252.255 223.970,251.003 225.223 C 249.689 226.538,249.597 230.656,249.402 296.903 L 249.194 367.187 225.769 367.188 L 202.344 367.188 202.344 297.024 C 202.344 237.709,202.173 226.627,201.236 225.345 C 200.231 223.968,198.935 223.805,187.174 223.580 L 174.219 223.332 174.219 199.947 L 174.219 176.563 187.065 176.563 C 203.656 176.563,202.342 178.273,202.350 156.662 C 202.363 118.824,212.017 101.437,237.269 93.767 C 246.109 91.082,284.468 89.276,293.652 91.113 M23.438 282.813 L 23.438 287.500 28.125 287.500 L 32.813 287.500 32.813 282.813 L 32.813 278.125 28.125 278.125 L 23.438 278.125 23.438 282.813 " stroke="none" fill="#000000" fill-rule="evenodd"></path></g></svg>