<svg id="svg" xmlns="http://www.w3.org/2000/svg" xmlns:xlink="http://www.w3.org/1999/xlink" width="400" height="400" viewBox="0, 0, 400,400"><g id="svgg"><path id="path0" d="M59.431 24.680 C 42.676 29.185,29.010 42.997,24.615 59.869 C 23.594 63.789,23.438 78.205,23.438 168.133 L 23.438 271.875 28.100 271.875 L 32.763 271.875 32.984 168.945 L 33.205 66.016 34.934 60.938 C 39.236 48.300,48.290 39.232,60.881 34.949 L 66.016 33.203 173.633 32.984 L 281.250 32.765 281.250 28.101 L 281.250 23.438 172.461 23.489 C 79.680 23.533,63.048 23.708,59.431 24.680 M287.500 27.987 L 287.500 32.632 311.133 33.005 C 332.786 33.346,335.153 33.518,339.391 35.052 C 352.396 39.759,361.084 48.640,365.066 61.296 L 366.797 66.797 366.797 200.000 L 366.797 333.203 365.072 338.672 C 361.044 351.437,352.104 360.536,339.211 364.991 L 333.984 366.797 200.391 366.797 L 66.797 366.797 61.296 365.066 C 40.270 358.451,33.609 346.398,33.002 313.867 L 32.627 293.750 27.979 293.750 L 23.332 293.750 23.596 316.602 C 23.858 339.228,23.881 339.505,25.942 344.685 C 31.477 358.597,40.871 368.018,55.078 373.906 L 60.547 376.172 200.000 376.172 L 339.453 376.172 344.685 374.074 C 358.626 368.484,368.484 358.626,374.074 344.685 L 376.172 339.453 376.172 200.000 L 376.172 60.547 374.074 55.315 C 368.482 41.368,358.599 31.488,344.685 25.936 L 339.453 23.848 313.477 23.595 L 287.500 23.342 287.500 27.987 M258.984 90.129 C 253.508 91.552,244.301 95.528,238.129 99.135 L 232.899 102.192 225.239 101.029 C 215.131 99.495,185.103 100.026,176.891 101.884 L 171.359 103.135 164.892 99.248 C 150.435 90.559,134.332 87.063,130.603 91.804 C 126.606 96.886,124.274 110.989,125.621 121.935 L 126.510 129.153 122.702 134.847 C 115.396 145.770,113.718 152.930,114.298 170.703 C 115.463 206.415,131.236 226.153,164.873 233.991 L 170.762 235.364 168.628 239.845 C 166.203 244.937,165.497 245.286,157.592 245.302 C 150.579 245.316,147.881 244.052,143.288 238.600 C 131.327 224.402,127.812 221.844,119.531 221.318 C 107.332 220.543,103.710 229.302,113.315 236.353 C 118.779 240.364,121.473 243.761,125.419 251.620 C 132.871 266.457,141.574 271.875,157.954 271.875 L 165.625 271.875 165.625 282.013 L 165.625 292.151 161.533 295.386 C 155.661 300.027,153.684 304.293,155.809 307.732 C 158.383 311.896,247.606 312.116,251.754 307.968 C 254.921 304.801,254.001 301.835,248.208 296.534 L 243.030 291.797 242.779 269.141 C 242.542 247.847,242.420 246.203,240.759 241.797 C 238.117 234.791,238.032 235.014,243.750 233.938 C 276.784 227.722,291.615 207.788,291.669 169.531 C 291.694 151.914,288.768 141.626,280.672 130.859 L 277.734 126.953 277.734 115.234 C 277.734 92.394,273.270 86.416,258.984 90.129 M266.914 103.526 C 268.104 108.650,268.172 115.754,267.101 122.959 L 266.233 128.795 270.975 135.322 C 279.592 147.181,281.678 154.001,281.559 169.922 C 281.292 205.650,268.351 220.327,232.629 225.415 C 219.908 227.226,217.629 230.579,224.932 236.737 C 231.958 242.661,232.311 244.225,232.791 271.484 C 233.150 291.898,233.381 295.247,234.581 297.443 L 235.959 299.965 233.997 300.457 C 231.607 301.057,173.749 300.572,173.124 299.947 C 172.880 299.703,173.378 298.134,174.231 296.461 C 179.033 287.041,175.688 259.811,169.907 261.262 C 159.534 263.866,145.438 261.058,140.180 255.342 C 133.591 248.178,131.412 241.527,137.783 248.025 C 148.202 258.651,174.716 258.263,176.970 247.451 C 177.727 243.820,180.663 239.060,183.911 236.199 C 189.981 230.854,187.257 227.353,175.629 225.554 C 140.997 220.197,125.659 203.801,124.433 170.827 C 123.811 154.095,125.408 148.344,133.783 137.160 L 137.772 131.834 136.799 127.124 C 134.783 117.362,135.365 102.656,137.867 100.154 C 139.508 98.512,153.760 104.334,163.458 110.607 C 169.521 114.529,169.566 114.534,178.516 112.170 C 189.154 109.360,217.333 109.288,229.038 112.040 C 234.599 113.348,232.734 113.930,246.482 106.591 C 261.549 98.548,265.616 97.938,266.914 103.526 M23.438 282.813 L 23.438 287.500 28.125 287.500 L 32.813 287.500 32.813 282.813 L 32.813 278.125 28.125 278.125 L 23.438 278.125 23.438 282.813 " stroke="none" fill="#000000" fill-rule="evenodd"></path></g></svg>