<svg id="svg" version="1.1" xmlns="http://www.w3.org/2000/svg" xmlns:xlink="http://www.w3.org/1999/xlink" width="400" height="400" viewBox="0, 0, 400,400"><g id="svgg"><path id="path0" d="M59.431 24.680 C 42.676 29.185,29.010 42.997,24.615 59.869 C 23.594 63.789,23.438 78.205,23.438 168.133 L 23.438 271.875 28.100 271.875 L 32.763 271.875 32.984 168.945 L 33.205 66.016 34.934 60.938 C 39.236 48.300,48.290 39.232,60.881 34.949 L 66.016 33.203 173.633 32.984 L 281.250 32.765 281.250 28.101 L 281.250 23.438 172.461 23.489 C 79.680 23.533,63.048 23.708,59.431 24.680 M287.500 27.987 L 287.500 32.632 311.133 33.005 C 332.786 33.346,335.153 33.518,339.391 35.052 C 352.396 39.759,361.084 48.640,365.066 61.296 L 366.797 66.797 366.797 200.000 L 366.797 333.203 365.072 338.672 C 361.044 351.437,352.104 360.536,339.211 364.991 L 333.984 366.797 200.391 366.797 L 66.797 366.797 61.296 365.066 C 40.270 358.451,33.609 346.398,33.002 313.867 L 32.627 293.750 27.979 293.750 L 23.332 293.750 23.596 316.602 C 23.858 339.228,23.881 339.505,25.942 344.685 C 31.477 358.597,40.871 368.018,55.078 373.906 L 60.547 376.172 200.000 376.172 L 339.453 376.172 344.685 374.074 C 358.626 368.484,368.484 358.626,374.074 344.685 L 376.172 339.453 376.172 200.000 L 376.172 60.547 374.074 55.315 C 368.482 41.368,358.599 31.488,344.685 25.936 L 339.453 23.848 313.477 23.595 L 287.500 23.342 287.500 27.987 M127.344 72.607 C 83.114 81.957,58.576 131.228,77.333 173.025 L 79.778 178.471 78.852 185.242 C 68.083 264.044,138.663 334.001,216.073 321.251 C 221.516 320.355,221.693 320.381,227.792 322.950 C 264.997 338.623,308.402 321.671,323.244 285.672 C 331.513 265.618,330.289 237.650,320.487 222.656 C 319.407 221.004,319.200 217.995,319.142 203.125 C 319.065 183.347,318.056 176.710,312.830 161.603 C 294.722 109.262,240.051 74.504,186.339 81.182 C 181.944 81.729,181.327 81.592,176.089 78.913 C 161.583 71.495,143.608 69.169,127.344 72.607 M157.135 82.879 C 161.395 83.879,167.010 86.005,171.684 88.388 L 179.297 92.269 187.797 91.335 C 256.494 83.782,317.764 146.044,308.678 214.171 L 307.777 220.921 311.637 228.433 C 338.213 280.160,284.845 337.462,232.423 313.487 C 225.242 310.203,222.557 309.991,208.984 311.639 C 139.269 320.105,77.211 253.528,89.442 183.390 L 90.603 176.733 87.499 170.108 C 65.283 122.700,106.553 71.004,157.135 82.879 M182.587 122.314 C 149.731 127.426,131.068 150.720,137.083 179.107 C 141.391 199.434,152.550 207.536,188.962 216.771 C 219.727 224.575,221.094 225.215,221.094 231.822 C 221.094 247.699,189.949 248.892,176.516 233.530 C 165.839 221.320,163.089 219.576,154.467 219.548 C 127.639 219.462,130.300 255.154,158.203 269.656 C 182.976 282.531,223.017 281.731,244.185 267.940 C 268.277 252.243,272.076 216.408,251.652 197.514 C 242.535 189.079,235.478 186.319,207.031 180.061 C 179.796 174.069,173.463 169.723,180.237 161.672 C 188.767 151.535,210.477 154.544,222.095 167.473 C 239.475 186.816,265.883 173.331,256.988 149.655 C 249.746 130.378,214.351 117.371,182.587 122.314 M208.310 132.096 C 230.049 135.119,248.438 147.228,248.438 158.519 C 248.438 163.380,245.910 165.773,240.281 166.240 L 235.766 166.614 230.466 161.099 C 220.524 150.755,215.046 147.726,203.399 146.131 C 183.550 143.414,168.003 152.583,167.976 167.023 C 167.953 179.546,174.585 183.452,208.609 190.956 C 243.987 198.758,254.155 207.128,254.237 228.516 C 254.345 256.658,227.433 272.888,188.735 268.017 C 162.172 264.673,140.891 248.032,146.379 234.896 C 149.953 226.343,157.692 227.676,166.828 238.418 C 177.018 250.399,184.541 254.067,199.219 254.209 C 218.172 254.394,230.267 246.425,231.109 233.198 C 232.019 218.913,227.877 216.074,193.359 207.330 C 159.419 198.732,151.430 193.604,147.306 177.766 C 139.763 148.799,169.319 126.672,208.310 132.096 M23.438 282.813 L 23.438 287.500 28.125 287.500 L 32.813 287.500 32.813 282.813 L 32.813 278.125 28.125 278.125 L 23.438 278.125 23.438 282.813 " stroke="none" fill="#000000" fill-rule="evenodd"></path></g></svg>