<svg id="svg" xmlns="http://www.w3.org/2000/svg" xmlns:xlink="http://www.w3.org/1999/xlink" width="400" height="400" viewBox="0, 0, 400,400"><g id="svgg"><path id="path0" d="M59.431 24.680 C 42.676 29.185,29.010 42.997,24.615 59.869 C 23.594 63.789,23.438 78.205,23.438 168.133 L 23.438 271.875 28.100 271.875 L 32.763 271.875 32.984 168.945 L 33.205 66.016 34.934 60.938 C 39.236 48.300,48.290 39.232,60.881 34.949 L 66.016 33.203 173.633 32.984 L 281.250 32.765 281.250 28.101 L 281.250 23.438 172.461 23.489 C 79.680 23.533,63.048 23.708,59.431 24.680 M287.500 27.987 L 287.500 32.632 311.133 33.005 C 332.786 33.346,335.153 33.518,339.391 35.052 C 352.396 39.759,361.084 48.640,365.066 61.296 L 366.797 66.797 366.797 200.000 L 366.797 333.203 365.072 338.672 C 361.044 351.437,352.104 360.536,339.211 364.991 L 333.984 366.797 200.391 366.797 L 66.797 366.797 61.296 365.066 C 40.270 358.451,33.609 346.398,33.002 313.867 L 32.627 293.750 27.979 293.750 L 23.332 293.750 23.596 316.602 C 23.858 339.228,23.881 339.505,25.942 344.685 C 31.477 358.597,40.871 368.018,55.078 373.906 L 60.547 376.172 200.000 376.172 L 339.453 376.172 344.685 374.074 C 358.626 368.484,368.484 358.626,374.074 344.685 L 376.172 339.453 376.172 200.000 L 376.172 60.547 374.074 55.315 C 368.482 41.368,358.599 31.488,344.685 25.936 L 339.453 23.848 313.477 23.595 L 287.500 23.342 287.500 27.987 M301.953 98.416 C 300.664 98.746,272.715 109.400,239.844 122.090 C 206.973 134.781,159.868 152.945,135.167 162.457 C 81.361 183.175,83.603 181.928,83.597 191.120 C 83.592 197.877,85.283 198.898,113.672 209.288 C 126.992 214.163,138.342 218.575,138.895 219.092 C 139.447 219.609,144.139 233.719,149.322 250.446 C 163.746 297.001,163.357 296.788,191.724 273.649 C 201.069 266.025,206.971 261.725,207.792 261.940 C 208.506 262.126,219.965 270.185,233.256 279.848 C 264.435 302.515,263.199 301.730,267.816 301.800 C 276.784 301.935,276.839 301.796,286.364 255.859 C 307.825 152.358,316.406 109.904,316.406 107.237 C 316.406 100.984,309.171 96.568,301.953 98.416 M306.250 108.197 C 306.250 108.409,302.220 128.184,297.295 152.143 C 279.866 236.926,268.765 289.968,268.291 290.736 C 267.544 291.945,267.435 291.873,240.992 272.634 C 204.586 246.148,208.406 246.664,185.692 265.151 C 178.577 270.942,171.875 276.257,170.799 276.962 L 168.843 278.244 166.047 269.395 C 164.509 264.529,163.038 259.844,162.778 258.984 C 162.348 257.563,162.488 257.590,164.325 259.286 C 167.176 261.920,172.082 261.867,174.776 259.173 C 176.521 257.428,176.964 255.739,178.549 244.785 C 179.537 237.960,180.789 231.402,181.331 230.212 C 181.873 229.023,201.433 210.281,224.798 188.565 C 248.162 166.848,267.610 148.209,268.015 147.145 C 269.861 142.288,266.987 137.902,261.997 137.963 C 259.275 137.997,166.009 194.199,155.774 201.973 C 150.627 205.882,149.473 213.018,152.399 222.842 C 153.289 225.830,153.878 228.414,153.708 228.583 C 153.538 228.753,152.473 225.796,151.340 222.013 C 147.879 210.450,149.564 211.570,118.298 200.056 C 105.545 195.359,94.766 191.172,94.346 190.752 C 93.208 189.615,90.190 190.829,182.132 155.416 C 229.127 137.314,276.016 119.222,286.328 115.212 C 305.247 107.854,306.250 107.501,306.250 108.197 M232.813 166.688 C 232.813 166.843,219.639 179.181,203.537 194.105 C 169.569 225.590,170.197 224.744,168.710 241.016 C 168.565 242.599,160.940 215.159,160.939 213.051 C 160.937 210.505,158.517 212.139,202.734 184.839 C 234.053 165.503,232.813 166.252,232.813 166.688 M155.359 233.594 C 155.359 234.332,155.111 234.188,154.688 233.203 C 154.318 232.344,154.016 231.113,154.016 230.469 C 154.016 229.730,154.264 229.875,154.688 230.859 C 155.057 231.719,155.359 232.949,155.359 233.594 M23.438 282.813 L 23.438 287.500 28.125 287.500 L 32.813 287.500 32.813 282.813 L 32.813 278.125 28.125 278.125 L 23.438 278.125 23.438 282.813 " stroke="none" fill="#000000" fill-rule="evenodd"></path></g></svg>