<?xml version="1.0" standalone="no"?>
<!DOCTYPE svg PUBLIC "-//W3C//DTD SVG 20010904//EN"
 "http://www.w3.org/TR/2001/REC-SVG-20010904/DTD/svg10.dtd">
<svg version="1.0" xmlns="http://www.w3.org/2000/svg"
 width="512.000000pt" height="512.000000pt" viewBox="0 0 512.000000 512.000000"
 preserveAspectRatio="xMidYMid meet">

<g transform="translate(0.000000,512.000000) scale(0.100000,-0.100000)"
fill="#fff" stroke="none">
<path d="M1330 4596 c-755 -277 -1213 -450 -1227 -464 -30 -28 -30 -76 0 -104
13 -13 218 -93 517 -203 l495 -180 2 -285 3 -285 -35 -25 c-20 -14 -49 -45
-66 -70 -61 -91 -60 -62 -57 -1006 l3 -859 23 -45 c35 -72 75 -114 144 -151
l63 -34 483 -3 482 -3 0 -159 0 -160 -96 0 c-128 0 -168 -13 -229 -75 -64 -63
-75 -100 -75 -244 0 -105 1 -113 25 -136 l24 -25 751 0 751 0 24 25 c24 23 25
31 25 136 0 137 -11 177 -67 239 -57 63 -106 80 -235 80 l-98 0 0 160 0 159
483 3 482 3 63 34 c70 38 100 69 140 145 l27 51 0 880 0 880 -26 55 c-24 52
-100 140 -120 140 -5 0 -8 122 -7 287 l3 287 170 63 c94 34 200 73 238 87 l67
25 0 -238 0 -239 -30 -12 c-42 -17 -104 -90 -118 -138 -7 -24 -12 -113 -12
-231 0 -190 0 -192 25 -216 13 -14 33 -25 45 -25 19 0 18 -4 -15 -52 -19 -29
-35 -56 -35 -60 0 -12 120 -89 129 -84 5 3 26 33 47 66 22 33 41 60 44 60 3 0
22 -27 44 -60 21 -33 42 -63 47 -66 9 -5 129 72 129 84 0 4 -16 31 -35 60 -33
48 -34 52 -15 52 12 0 32 11 45 25 25 24 25 26 25 216 0 118 -5 207 -12 231
-14 48 -76 121 -118 138 l-30 12 0 269 c0 148 1 269 3 269 2 0 84 29 183 65
186 68 214 86 214 135 0 15 -8 37 -17 49 -13 14 -391 157 -1233 466 -668 245
-1224 445 -1235 444 -11 -1 -562 -200 -1225 -443z m2312 -118 c587 -215 1068
-394 1068 -398 0 -4 -167 -68 -372 -143 l-372 -136 -58 55 c-140 133 -481 239
-913 284 -175 18 -529 23 -715 11 -522 -35 -900 -140 -1070 -297 l-56 -53
-372 136 c-205 75 -372 139 -372 143 0 8 2118 787 2144 789 11 0 500 -175
1088 -391z m-647 -498 c376 -40 695 -134 803 -237 l42 -40 0 -291 0 -292
-1280 0 -1280 0 0 292 0 291 40 38 c131 125 482 215 985 253 91 7 588 -3 690
-14z m1620 -805 c24 -23 25 -29 25 -160 l0 -135 -80 0 -80 0 0 135 c0 131 1
137 25 160 15 16 36 25 55 25 19 0 40 -9 55 -25z m-689 -241 c15 -11 37 -33
48 -48 21 -27 21 -39 24 -697 l2 -669 -1440 0 -1440 0 0 654 c0 440 4 664 11
683 14 37 47 73 84 89 25 11 266 13 1357 11 1323 -2 1327 -2 1354 -23z m72
-1683 c-3 -118 -12 -141 -72 -185 -27 -21 -30 -21 -1366 -21 -1336 0 -1339 0
-1366 21 -60 44 -69 67 -72 185 l-4 109 1442 0 1442 0 -4 -109z m-1198 -531
l0 -160 -240 0 -240 0 0 160 0 160 240 0 240 0 0 -160z m375 -345 c21 -20 25
-34 25 -80 l0 -55 -640 0 -640 0 0 55 c0 46 4 60 25 80 l24 25 591 0 591 0 24
-25z"/>
<path d="M1942 2297 c-127 -127 -232 -237 -232 -242 0 -13 92 -105 105 -105 6
0 116 106 245 235 l235 235 -55 55 c-30 30 -57 55 -60 55 -3 0 -110 -105 -238
-233z"/>
<path d="M2502 2297 c-127 -127 -232 -237 -232 -242 0 -13 92 -105 105 -105 6
0 116 106 245 235 l235 235 -55 55 c-30 30 -57 55 -60 55 -3 0 -110 -105 -238
-233z"/>
<path d="M3062 2297 c-127 -127 -232 -237 -232 -243 0 -7 25 -33 56 -59 l56
-48 236 236 237 237 -55 55 c-30 30 -57 55 -60 55 -3 0 -110 -105 -238 -233z"/>
</g>
</svg>
