<svg id="svg" xmlns="http://www.w3.org/2000/svg" xmlns:xlink="http://www.w3.org/1999/xlink" width="400" height="400" viewBox="0, 0, 400,400"><g id="svgg"><path id="path0" d="M19.286 1.887 C 18.167 2.924,17.012 4.723,16.721 5.885 C 15.685 10.013,49.659 344.476,51.350 346.796 C 53.128 349.234,202.511 399.838,208.203 399.929 C 212.844 400.004,345.824 350.039,348.166 347.341 C 350.390 344.778,348.651 360.567,367.283 173.725 C 384.293 3.146,384.143 5.065,380.714 1.887 L 378.678 0.000 200.000 0.000 L 21.322 0.000 19.286 1.887 M349.435 175.956 C 340.702 263.279,333.301 334.956,332.989 335.238 C 332.677 335.520,304.473 346.221,270.313 359.017 L 208.203 382.282 137.372 358.678 L 66.542 335.074 66.071 331.404 C 65.812 329.386,58.761 259.004,50.402 175.000 C 42.043 90.996,35.040 21.123,34.839 19.727 L 34.473 17.188 199.893 17.187 L 365.313 17.187 349.435 175.956 M105.761 83.351 C 99.446 84.590,97.885 94.681,103.377 98.755 L 105.583 100.391 201.715 100.598 L 297.847 100.805 297.442 102.942 C 297.219 104.117,294.648 118.877,291.729 135.742 L 286.421 166.406 200.437 166.409 C 117.043 166.412,114.379 166.457,111.995 167.911 C 108.730 169.902,107.345 173.950,108.614 177.795 C 110.670 184.025,103.838 183.588,199.038 183.591 L 283.624 183.594 283.199 185.352 C 282.966 186.318,279.275 207.288,274.998 231.950 C 270.720 256.612,267.125 276.855,267.008 276.934 C 266.892 277.012,253.619 282.003,237.512 288.024 L 208.227 298.971 174.534 287.736 L 140.841 276.502 137.155 258.059 C 132.828 236.411,132.824 236.398,129.512 234.378 C 124.516 231.332,118.237 233.739,116.869 239.224 C 115.662 244.065,124.511 286.758,127.250 289.307 C 130.128 291.985,206.846 317.524,209.960 316.840 C 213.639 316.032,277.993 291.672,280.106 290.288 C 283.096 288.329,282.384 291.905,300.417 188.220 C 318.996 81.394,318.254 87.518,313.005 84.317 C 310.705 82.915,112.689 81.992,105.761 83.351 " stroke="none" fill="#000000" fill-rule="evenodd"></path></g></svg>