<svg id="svg" xmlns="http://www.w3.org/2000/svg" xmlns:xlink="http://www.w3.org/1999/xlink" width="400" height="400" viewBox="0, 0, 400,400"><g id="svgg"><path id="path0" d="M19.286 1.887 C 18.167 2.924,17.012 4.723,16.721 5.885 C 15.685 10.013,49.659 344.476,51.350 346.796 C 53.128 349.234,202.511 399.838,208.203 399.929 C 212.844 400.004,345.824 350.039,348.166 347.341 C 350.390 344.778,348.651 360.567,367.283 173.725 C 384.293 3.146,384.143 5.065,380.714 1.887 L 378.678 0.000 200.000 0.000 L 21.322 0.000 19.286 1.887 M349.435 175.956 C 340.702 263.279,333.301 334.956,332.989 335.238 C 332.677 335.520,304.473 346.221,270.313 359.017 L 208.203 382.282 137.372 358.678 L 66.542 335.074 66.071 331.404 C 65.812 329.386,58.761 259.004,50.402 175.000 C 42.043 90.996,35.040 21.123,34.839 19.727 L 34.473 17.188 199.893 17.187 L 365.313 17.187 349.435 175.956 M105.691 83.360 C 98.965 84.662,98.933 85.600,103.921 135.436 C 108.604 182.217,108.131 179.255,111.299 181.672 L 113.819 183.594 197.535 183.594 C 253.707 183.594,281.250 183.855,281.250 184.388 C 281.250 185.558,267.165 276.857,266.966 276.976 C 266.873 277.031,253.619 282.003,237.512 288.024 L 208.227 298.971 174.534 287.736 L 140.841 276.502 137.155 258.059 C 132.828 236.411,132.824 236.398,129.512 234.378 C 124.516 231.332,118.237 233.739,116.869 239.224 C 115.662 244.065,124.511 286.758,127.250 289.307 C 130.854 292.660,207.095 317.566,210.793 316.598 C 215.381 315.398,278.327 291.453,280.308 290.155 C 283.065 288.349,283.026 288.552,291.771 231.642 C 300.377 175.640,300.574 173.991,299.067 170.681 C 297.030 166.210,301.150 166.406,209.199 166.406 L 124.571 166.406 121.605 136.133 C 119.973 119.482,118.443 104.541,118.204 102.930 L 117.769 100.000 214.732 100.000 L 311.694 100.000 314.146 97.809 C 318.469 93.946,317.354 86.525,312.074 84.020 C 309.656 82.873,111.481 82.240,105.691 83.360 " stroke="none" fill="#000000" fill-rule="evenodd"></path></g></svg>