<svg id="svg" xmlns="http://www.w3.org/2000/svg" xmlns:xlink="http://www.w3.org/1999/xlink" width="400" height="340.3973509933775" viewBox="0, 0, 400,340.3973509933775"><g id="svgg"><path id="path0" d="M118.543 50.935 C 117.815 51.167,113.642 52.120,109.272 53.052 C 94.264 56.252,76.962 67.841,69.830 79.470 C 68.266 82.020,66.273 84.840,65.400 85.737 C 63.916 87.264,62.012 92.101,58.446 103.405 C 52.255 123.029,60.965 150.145,77.864 163.855 C 87.269 171.485,91.553 170.910,84.335 162.986 C 77.044 154.981,69.878 126.552,73.870 121.470 C 74.563 120.589,75.476 117.610,75.900 114.850 C 79.197 93.393,105.277 70.026,129.929 66.441 C 140.237 64.941,140.325 64.954,154.716 69.858 C 161.894 72.304,162.599 71.602,158.206 66.381 C 153.201 60.433,140.374 53.317,132.872 52.327 C 129.362 51.864,125.000 51.266,123.179 50.999 C 121.358 50.731,119.272 50.702,118.543 50.935 M125.411 90.560 C 91.743 102.037,81.655 155.081,110.158 170.762 C 117.887 175.014,119.727 173.554,114.037 167.683 C 109.482 162.984,103.764 145.802,105.402 141.736 C 105.845 140.635,107.044 136.582,108.067 132.729 C 114.377 108.963,142.259 92.828,162.680 101.126 C 172.855 105.260,173.507 103.203,164.219 96.269 C 152.368 87.421,139.969 85.597,125.411 90.560 M148.344 119.675 C 125.597 127.911,117.092 158.817,134.596 169.635 C 138.599 172.109,143.364 172.263,139.564 169.796 C 134.070 166.228,132.947 150.152,137.660 142.527 C 145.726 129.477,159.353 123.850,171.609 128.510 C 175.657 130.049,175.745 128.469,171.817 124.779 C 165.647 118.983,156.032 116.892,148.344 119.675 M242.182 138.876 C 195.488 151.060,177.384 234.143,218.008 249.813 C 223.833 252.059,228.397 252.318,262.208 252.318 L 299.912 252.318 302.838 242.384 C 306.839 228.803,306.911 229.139,300.000 229.139 C 292.871 229.139,292.942 229.846,298.521 214.396 C 309.907 182.867,309.586 165.692,297.339 151.201 C 286.237 138.065,264.180 133.136,242.182 138.876 M167.721 161.312 C 166.846 162.728,162.914 179.815,162.914 182.201 C 162.914 184.758,187.085 184.989,189.011 182.450 C 190.510 180.475,193.377 168.013,193.377 163.475 C 193.377 160.212,169.638 158.210,167.721 161.312 M268.225 163.496 C 279.679 168.282,280.732 179.362,272.451 207.947 L 266.887 227.152 252.005 227.527 C 229.785 228.086,224.768 224.224,224.933 206.691 C 225.227 175.395,246.324 154.346,268.225 163.496 M153.745 221.523 C 149.888 239.189,146.126 254.834,145.386 256.291 C 142.243 262.477,138.738 264.901,132.933 264.901 C 126.651 264.901,127.401 263.660,123.079 281.177 C 121.071 289.316,120.773 289.140,136.740 289.234 C 164.560 289.399,167.534 284.987,180.773 223.906 C 184.792 205.366,188.079 190.018,188.079 189.800 C 188.079 189.582,181.932 189.404,174.419 189.404 L 160.759 189.404 153.745 221.523 " stroke="none" fill="#000000" fill-rule="evenodd"></path></g></svg>