<svg id="svg" xmlns="http://www.w3.org/2000/svg" xmlns:xlink="http://www.w3.org/1999/xlink" width="400" height="400" viewBox="0, 0, 400,400"><g id="svgg"><path id="path0" d="M37.568 18.271 C 34.703 21.362,33.565 5.565,49.526 184.252 C 64.676 353.859,63.616 345.191,69.467 347.338 C 77.448 350.267,197.516 384.071,199.936 384.071 C 202.464 384.071,328.051 348.678,332.149 346.811 C 336.160 344.983,336.034 346.102,350.483 184.237 C 366.435 5.543,365.296 21.362,362.432 18.271 L 360.262 15.929 200.000 15.929 L 39.738 15.929 37.568 18.271 M346.903 33.303 C 346.903 36.455,320.181 332.326,319.868 332.639 C 319.636 332.871,292.560 340.725,259.700 350.091 L 199.955 367.120 140.209 350.046 C 107.349 340.655,80.303 332.811,80.107 332.615 C 79.837 332.345,53.097 36.031,53.097 33.309 C 53.097 32.998,119.204 32.743,200.000 32.743 C 280.796 32.743,346.903 32.995,346.903 33.303 M146.288 81.782 L 143.805 83.917 143.570 160.155 C 143.347 232.023,143.246 236.365,141.800 235.908 C 130.931 232.467,97.893 223.915,95.433 223.906 C 92.893 223.896,91.697 224.482,89.902 226.617 L 87.611 229.339 87.611 251.354 C 87.611 274.345,87.961 276.827,91.469 278.683 C 93.953 279.997,181.976 304.425,184.226 304.425 C 186.378 304.425,189.477 302.817,190.901 300.962 C 192.050 299.466,192.622 86.630,191.486 83.668 C 189.652 78.890,151.502 77.297,146.288 81.782 M211.947 80.668 C 207.834 82.918,207.965 80.434,207.965 156.210 L 207.965 228.010 209.956 229.802 C 213.397 232.900,214.687 232.851,238.686 228.720 C 265.618 224.084,263.125 223.776,262.350 231.646 L 261.743 237.800 236.845 244.640 C 204.672 253.480,207.958 249.753,207.993 277.367 C 208.034 309.978,203.038 308.389,258.082 293.290 C 299.411 281.953,302.101 281.025,303.572 277.608 C 304.414 275.652,312.401 185.929,312.513 177.163 C 312.578 172.119,311.080 169.507,307.292 168.059 C 305.628 167.422,275.502 171.113,259.513 173.913 L 256.637 174.416 256.637 151.368 L 256.637 128.319 284.581 128.319 L 312.526 128.319 314.959 125.885 C 317.528 123.316,317.967 120.450,320.033 92.757 L 320.606 85.072 317.893 82.359 L 315.180 79.646 264.449 79.673 C 229.440 79.691,213.168 80.000,211.947 80.668 M175.221 190.590 L 175.221 284.720 153.319 278.647 C 141.272 275.307,125.343 270.908,117.920 268.871 L 104.425 265.168 104.425 254.266 C 104.425 248.269,104.612 243.363,104.840 243.363 C 105.069 243.363,115.236 246.150,127.434 249.558 C 152.389 256.528,154.832 256.836,158.007 253.411 L 160.177 251.069 160.177 173.765 L 160.177 96.460 167.699 96.460 L 175.221 96.460 175.221 190.590 M302.343 101.106 C 302.036 103.662,301.782 107.046,301.778 108.628 L 301.770 111.504 273.383 111.504 L 244.997 111.504 242.410 114.091 L 239.823 116.678 239.823 152.185 L 239.823 187.691 241.995 189.863 C 244.905 192.773,247.791 192.691,273.432 188.967 C 284.859 187.307,294.384 186.124,294.597 186.338 C 294.999 186.740,288.436 266.554,287.952 267.148 C 287.803 267.332,273.627 271.342,256.451 276.060 L 225.221 284.638 224.969 275.388 C 224.830 270.301,224.870 265.986,225.057 265.798 C 225.244 265.611,236.309 262.457,249.646 258.790 C 280.684 250.255,277.845 252.998,279.446 230.001 C 281.300 203.376,282.374 204.078,248.568 209.823 L 224.779 213.865 224.779 155.163 L 224.779 96.460 263.840 96.460 L 302.901 96.460 302.343 101.106 " stroke="none" fill="#000000" fill-rule="evenodd"></path></g></svg>