<svg id="svg" xmlns="http://www.w3.org/2000/svg" xmlns:xlink="http://www.w3.org/1999/xlink" width="400" height="110.27216856892011" viewBox="0, 0, 400,110.27216856892011"><g id="svgg"><path id="path0" d="M25.231 9.559 C 24.198 10.953,22.023 13.758,20.397 15.792 C 1.429 39.516,1.505 63.471,20.609 82.844 L 24.903 87.198 25.284 91.448 C 25.834 97.575,25.717 97.278,27.575 97.278 C 28.440 97.278,29.155 97.160,29.163 97.015 C 29.171 96.870,29.388 94.578,29.646 91.921 L 30.115 87.090 33.335 84.059 C 53.833 64.763,53.917 39.810,33.568 14.439 C 31.495 11.854,29.394 9.128,28.900 8.381 C 27.683 6.542,27.396 6.634,25.231 9.559 M69.886 39.684 C 69.886 41.059,69.912 41.089,71.131 41.089 C 71.970 41.089,72.646 41.358,73.203 41.915 L 74.029 42.742 73.872 61.669 C 73.679 84.989,73.877 83.582,70.787 83.582 C 69.537 83.582,69.535 83.585,69.535 85.162 L 69.535 86.743 75.680 86.743 L 81.826 86.743 81.826 85.162 C 81.826 83.592,81.818 83.582,80.605 83.582 C 78.245 83.582,78.297 84.032,78.399 64.424 L 78.490 46.909 86.004 64.982 C 96.070 89.195,95.249 87.445,96.546 87.445 C 98.000 87.445,97.560 88.357,106.453 66.943 L 114.311 48.022 114.527 52.194 C 114.645 54.488,114.764 62.138,114.790 69.193 C 114.843 83.585,114.844 83.582,112.535 83.582 C 111.336 83.582,111.326 83.595,111.326 85.162 L 111.326 86.743 118.525 86.743 L 125.724 86.743 125.724 85.162 L 125.724 83.582 124.164 83.582 C 121.372 83.582,121.510 84.690,121.510 62.257 C 121.510 39.831,121.343 41.089,124.320 41.089 L 125.724 41.089 125.724 39.676 L 125.724 38.263 119.535 38.359 L 113.346 38.455 105.740 56.962 C 101.557 67.140,98.058 75.544,97.965 75.637 C 97.872 75.730,94.331 67.363,90.097 57.043 L 82.397 38.279 76.141 38.279 L 69.886 38.279 69.886 39.684 M296.400 39.684 C 296.400 40.996,296.467 41.089,297.407 41.089 C 297.960 41.089,298.829 41.416,299.338 41.817 L 300.263 42.544 300.263 62.361 C 300.263 84.689,300.401 83.582,297.629 83.582 C 296.402 83.582,296.400 83.584,296.400 85.206 L 296.400 86.830 306.848 86.652 C 315.974 86.497,317.642 86.381,320.035 85.740 C 343.679 79.407,342.740 43.629,318.803 38.823 C 316.745 38.409,313.737 38.279,306.248 38.279 L 296.400 38.279 296.400 39.684 M341.703 39.684 C 341.703 41.005,341.765 41.089,342.737 41.089 C 343.324 41.089,344.198 41.455,344.757 41.936 L 345.742 42.783 345.842 61.690 C 345.960 84.023,346.019 83.582,342.932 83.582 C 341.705 83.582,341.703 83.585,341.703 85.202 L 341.703 86.822 353.907 86.645 C 371.490 86.390,376.183 84.659,378.907 77.427 C 381.500 70.546,376.530 61.106,370.315 61.106 C 370.031 61.106,369.798 60.948,369.798 60.755 C 369.798 60.562,369.943 60.404,370.121 60.404 C 370.785 60.404,374.432 56.730,375.142 55.346 C 377.019 51.683,376.222 46.273,373.339 43.119 C 369.419 38.829,367.119 38.291,352.678 38.284 L 341.703 38.279 341.703 39.684 M28.545 84.716 L 27.597 85.705 26.566 84.674 L 25.535 83.643 26.472 62.980 C 26.987 51.616,27.425 42.081,27.445 41.791 C 27.466 41.501,27.934 50.818,28.487 62.496 L 29.492 83.727 28.545 84.716 M316.513 42.658 C 334.333 46.434,334.940 77.391,317.284 81.990 C 314.019 82.840,309.117 82.720,308.100 81.765 L 307.287 81.001 307.287 62.434 L 307.287 43.866 308.149 43.004 C 309.190 41.963,312.572 41.823,316.513 42.658 M364.600 43.304 C 370.074 45.982,370.667 54.571,365.623 58.118 C 364.122 59.174,364.116 59.175,358.355 59.293 L 352.590 59.411 352.590 51.638 L 352.590 43.866 353.494 42.962 C 354.830 41.626,361.597 41.835,364.600 43.304 M145.215 51.684 C 127.008 55.131,126.812 83.271,144.969 87.057 C 159.130 90.010,170.292 78.180,166.626 64.104 C 164.287 55.125,155.122 49.808,145.215 51.684 M191.521 51.616 C 189.219 52.106,186.509 53.654,184.702 55.509 L 183.037 57.219 182.438 54.773 L 181.838 52.327 180.455 52.327 C 178.223 52.327,173.486 55.212,173.486 56.572 C 173.486 57.528,173.575 57.594,174.870 57.594 C 177.350 57.594,177.349 57.586,177.349 70.588 C 177.349 83.432,177.322 83.582,175.046 83.582 C 173.847 83.582,173.837 83.595,173.837 85.162 L 173.837 86.743 180.334 86.743 L 186.831 86.743 186.831 85.162 C 186.831 83.592,186.823 83.582,185.610 83.582 C 183.343 83.582,183.236 83.080,183.393 73.148 C 183.522 65.015,183.585 64.305,184.357 62.346 C 187.281 54.924,196.556 53.003,199.649 59.178 L 200.702 61.282 200.814 71.579 C 200.941 83.255,200.880 83.582,198.587 83.582 C 197.374 83.582,197.366 83.592,197.366 85.162 L 197.366 86.743 203.863 86.743 L 210.360 86.743 210.360 85.162 C 210.360 83.601,210.345 83.582,209.174 83.582 C 207.040 83.582,207.041 83.591,206.848 70.799 L 206.673 59.175 205.685 57.164 C 203.458 52.629,197.576 50.325,191.521 51.616 M228.080 51.739 C 217.490 54.454,213.449 66.030,220.490 73.486 L 222.231 75.329 219.643 78.841 C 216.287 83.395,216.110 85.450,218.994 86.401 L 220.258 86.818 219.210 87.922 C 210.168 97.443,223.235 108.239,238.654 103.987 C 248.991 101.137,253.544 91.601,247.468 85.526 C 244.528 82.586,243.783 82.419,232.596 82.194 L 223.049 82.002 224.632 79.895 C 225.962 78.125,226.366 77.804,227.155 77.893 C 235.664 78.846,240.152 77.718,243.931 73.677 C 248.525 68.766,248.675 61.246,244.280 56.231 L 243.547 55.394 245.830 55.630 C 247.085 55.760,248.626 55.957,249.254 56.067 L 250.395 56.268 250.395 54.297 L 250.395 52.327 244.272 52.327 C 240.718 52.327,237.735 52.167,237.161 51.946 C 235.613 51.350,230.088 51.225,228.080 51.739 M268.749 51.805 C 250.792 55.706,250.939 83.304,268.937 87.057 C 283.233 90.038,294.407 77.992,290.481 63.833 C 287.972 54.783,278.688 49.645,268.749 51.805 M154.553 56.773 C 163.672 61.890,162.341 80.296,152.663 82.908 C 144.172 85.200,138.216 79.614,138.216 69.359 C 138.216 58.407,146.328 52.158,154.553 56.773 M235.835 56.318 C 243.823 60.038,241.904 72.998,233.179 74.261 C 225.079 75.433,220.281 64.132,226.319 58.105 C 229.055 55.376,232.444 54.739,235.835 56.318 M278.521 56.773 C 287.453 61.785,286.433 79.599,277.036 82.720 C 268.295 85.624,261.552 79.105,262.063 68.246 C 262.538 58.160,270.768 52.422,278.521 56.773 M367.989 64.780 C 373.381 67.767,374.193 75.018,369.645 79.566 C 367.123 82.088,365.549 82.529,359.049 82.529 C 352.134 82.529,352.590 83.265,352.590 72.094 L 352.590 63.511 359.350 63.625 C 366.090 63.740,366.116 63.743,367.989 64.780 M387.575 77.624 C 383.600 78.814,383.135 84.694,386.891 86.264 C 390.492 87.768,393.679 85.713,393.679 81.887 C 393.679 78.625,390.843 76.645,387.575 77.624 M391.659 79.724 C 394.723 83.087,389.843 87.878,386.628 84.663 C 385.806 83.840,385.603 83.334,385.609 82.117 C 385.627 78.626,389.326 77.163,391.659 79.724 M387.180 81.812 L 387.182 84.256 389.377 84.240 C 391.843 84.221,391.853 84.214,390.834 83.196 C 390.298 82.659,390.202 82.353,390.483 82.072 C 391.680 80.875,390.488 79.368,388.344 79.368 L 387.178 79.368 387.180 81.812 M389.464 80.927 C 389.464 81.206,389.306 81.531,389.113 81.651 C 388.920 81.770,388.762 81.542,388.762 81.145 C 388.762 80.747,388.920 80.421,389.113 80.421 C 389.306 80.421,389.464 80.649,389.464 80.927 M240.539 87.433 C 245.713 90.073,243.412 98.342,236.971 100.254 C 226.588 103.338,218.364 95.123,224.952 88.248 L 226.394 86.743 232.790 86.743 C 238.456 86.743,239.340 86.822,240.539 87.433 " stroke="none" fill="#000000" fill-rule="evenodd"></path></g></svg>