<svg id="svg" xmlns="http://www.w3.org/2000/svg" xmlns:xlink="http://www.w3.org/1999/xlink" width="400" height="451.0344827586207" viewBox="0, 0, 400,451.0344827586207"><g id="svgg"><path id="path0" d="M192.490 1.209 C 190.762 1.579,188.280 2.302,186.973 2.815 C 182.793 4.455,15.826 101.164,12.588 103.821 C 7.260 108.192,2.712 115.635,1.055 122.691 C -0.239 128.206,-0.224 324.012,1.072 328.966 C 2.762 335.431,5.670 340.438,10.550 345.287 L 14.946 349.655 38.062 362.930 C 74.901 384.086,81.581 386.580,100.000 386.063 C 127.391 385.293,142.978 371.967,146.889 345.977 C 147.488 341.994,147.581 328.238,147.583 243.068 L 147.586 144.757 146.242 143.413 L 144.898 142.069 132.649 142.069 C 125.127 142.069,120.058 142.252,119.515 142.542 C 117.109 143.830,117.241 138.069,117.241 241.490 C 117.241 345.559,117.385 339.560,114.764 344.720 C 109.088 355.895,94.701 359.239,80.331 352.723 C 78.663 351.967,73.407 349.091,68.650 346.331 C 63.892 343.572,53.637 337.636,45.860 333.140 C 38.082 328.645,31.306 324.442,30.802 323.800 C 29.586 322.255,29.326 130.230,30.537 127.889 C 31.253 126.505,25.461 129.901,132.414 68.158 C 204.513 26.537,198.803 29.740,200.456 29.983 C 202.839 30.332,368.683 126.381,369.444 127.852 C 370.035 128.996,370.106 141.450,370.003 226.180 L 369.885 323.198 368.736 324.327 C 366.056 326.960,201.863 421.149,199.953 421.149 C 198.085 421.149,196.850 420.454,164.828 401.376 C 151.777 393.600,153.418 393.909,146.232 397.871 C 139.930 401.346,136.242 402.993,129.061 405.542 C 123.279 407.594,122.508 408.136,122.938 409.849 C 123.321 411.373,122.106 410.607,154.713 429.898 C 190.940 451.332,189.688 450.755,200.000 450.755 C 210.366 450.755,207.315 452.201,254.862 424.750 C 339.699 375.770,350.264 369.674,367.356 359.840 C 393.395 344.858,398.109 339.486,399.577 323.124 C 400.514 312.678,399.882 126.331,398.897 122.529 C 396.576 113.572,390.874 105.524,383.678 101.050 C 382.667 100.421,358.460 86.399,329.885 69.890 C 301.310 53.381,263.966 31.798,246.897 21.928 C 207.504 -0.850,205.553 -1.593,192.490 1.209 M236.552 129.701 C 186.169 133.834,158.337 162.272,166.418 201.359 C 172.232 229.475,192.589 240.262,251.954 246.680 C 302.342 252.128,315.415 258.561,313.130 276.783 C 310.686 296.282,289.330 304.648,247.389 302.537 C 211.972 300.755,199.159 292.832,194.468 269.812 C 192.708 261.177,193.679 261.609,176.024 261.609 L 162.207 261.609 160.576 263.240 L 158.946 264.870 159.225 271.171 C 160.976 310.660,190.262 332.108,246.667 335.210 C 311.318 338.765,350.088 314.783,350.042 271.264 C 350.005 235.652,331.103 222.318,268.276 213.583 C 209.422 205.401,202.507 202.691,202.544 187.816 C 202.592 168.430,221.912 159.911,260.460 162.280 C 290.938 164.153,301.895 171.768,308.051 195.360 C 308.342 196.475,309.168 197.975,309.887 198.693 L 311.194 200.000 325.380 200.000 C 344.859 200.000,344.676 200.188,341.365 183.631 C 333.485 144.224,295.812 124.840,236.552 129.701 " stroke="none" fill="#000000" fill-rule="evenodd"></path></g></svg>