<svg id="svg" xmlns="http://www.w3.org/2000/svg" xmlns:xlink="http://www.w3.org/1999/xlink" width="400" height="400" viewBox="0, 0, 400,400"><g id="svgg"><path id="path0" d="M176.563 26.140 C 55.868 43.747,-10.921 171.696,44.007 280.078 C 87.146 365.199,192.641 399.739,278.468 356.843 C 298.213 346.975,302.661 341.060,297.681 331.298 C 293.650 323.397,286.385 322.873,274.292 329.612 C 173.185 385.949,50.643 314.932,50.643 200.000 C 50.643 76.634,191.640 6.680,290.431 81.033 C 337.196 116.229,359.869 180.141,345.183 235.371 C 336.714 267.222,293.364 271.437,279.186 241.789 C 275.282 233.624,275.051 229.795,275.021 172.656 C 274.991 114.475,275.303 117.692,269.343 114.058 C 259.778 108.226,250.008 114.866,250.003 127.202 L 250.000 133.701 245.508 129.859 C 189.595 82.034,112.437 138.691,126.177 217.483 C 138.123 285.987,214.556 312.112,254.120 261.213 C 256.938 257.586,257.536 257.156,258.203 258.269 C 287.427 307.085,359.605 293.169,371.492 236.427 C 396.302 118.006,295.114 8.846,176.563 26.140 M210.938 139.577 C 242.911 148.257,259.305 195.503,242.612 230.859 C 216.741 285.654,151.172 263.526,151.172 200.000 C 151.172 159.431,179.304 130.989,210.938 139.577 " stroke="none" fill="#000000" fill-rule="evenodd"></path></g></svg>