<svg id="svg" xmlns="http://www.w3.org/2000/svg" xmlns:xlink="http://www.w3.org/1999/xlink" width="400" height="400" viewBox="0, 0, 400,400"><g id="svgg"><path id="path0" d="M22.656 51.429 C 12.149 55.337,4.704 62.852,1.295 72.991 C -0.693 78.901,-0.693 321.099,1.295 327.009 C 4.703 337.146,12.827 345.268,22.991 348.700 C 28.904 350.697,371.071 350.702,377.009 348.705 C 387.146 345.297,395.268 337.173,398.700 327.009 C 400.697 321.095,400.697 78.905,398.700 72.991 C 395.268 62.827,387.146 54.703,377.009 51.295 C 371.056 49.293,28.050 49.423,22.656 51.429 M368.750 67.544 C 368.750 68.033,240.173 185.538,213.315 209.595 C 209.692 212.840,207.108 214.451,204.136 215.315 C 198.038 217.087,193.324 215.543,186.685 209.595 C 159.827 185.538,31.250 68.033,31.250 67.544 C 31.250 67.348,107.187 67.188,200.000 67.188 C 292.813 67.188,368.750 67.348,368.750 67.544 M83.416 139.484 C 118.963 171.942,148.147 198.786,148.270 199.137 C 148.393 199.488,141.010 206.417,131.864 214.535 C 110.092 233.859,75.339 265.834,43.751 295.603 C 29.787 308.764,18.098 319.531,17.775 319.531 C 17.452 319.531,17.188 265.742,17.188 200.000 C 17.188 119.072,17.446 80.469,17.986 80.469 C 18.426 80.469,47.869 107.026,83.416 139.484 M382.813 200.000 C 382.813 265.742,382.548 319.531,382.225 319.531 C 381.902 319.531,370.213 308.764,356.249 295.603 C 324.661 265.834,289.908 233.859,268.136 214.535 C 258.990 206.417,251.607 199.488,251.730 199.137 C 252.155 197.921,380.864 80.583,381.836 80.526 C 382.613 80.480,382.813 104.865,382.813 200.000 M171.082 219.383 C 192.671 238.811,207.340 238.801,228.961 219.343 C 234.389 214.459,237.875 211.852,238.487 212.220 C 242.773 214.792,287.724 255.678,335.783 300.717 L 369.613 332.422 284.807 332.621 C 238.163 332.730,161.845 332.730,115.210 332.621 L 30.420 332.422 59.546 305.041 C 105.702 261.651,160.606 211.719,162.162 211.719 C 162.384 211.719,166.398 215.168,171.082 219.383 " stroke="none" fill="#000000" fill-rule="evenodd"></path></g></svg>