<svg id="svg" xmlns="http://www.w3.org/2000/svg" xmlns:xlink="http://www.w3.org/1999/xlink" width="400" height="400" viewBox="0, 0, 400,400"><g id="svgg"><path id="path0" d="M182.031 14.035 C 104.760 30.619,86.704 132.854,153.654 174.710 C 199.786 203.551,263.544 182.072,282.031 131.462 C 305.975 65.908,249.474 -0.440,182.031 14.035 M217.578 40.659 C 271.086 57.143,277.589 130.436,227.734 155.127 C 186.363 175.616,138.281 146.105,138.281 100.225 C 138.281 58.753,178.426 28.597,217.578 40.659 M119.922 213.748 C 79.233 220.960,46.933 252.956,38.993 293.914 C 36.664 305.931,36.717 378.003,39.058 381.843 C 42.856 388.071,26.416 387.494,200.000 387.494 C 373.584 387.494,357.144 388.071,360.942 381.843 C 363.098 378.306,363.343 307.550,361.241 295.255 C 354.202 254.074,320.926 220.798,279.745 213.759 C 269.423 211.994,129.869 211.985,119.922 213.748 M277.344 239.394 C 306.794 246.279,329.062 268.572,335.542 297.656 C 336.582 302.326,336.934 309.503,337.273 333.008 L 337.698 362.500 200.000 362.500 L 62.302 362.500 62.727 333.008 C 63.066 309.503,63.418 302.326,64.458 297.656 C 71.654 265.359,98.673 241.306,131.142 238.294 C 145.700 236.943,270.891 237.885,277.344 239.394 " stroke="none" fill="#000000" fill-rule="evenodd"></path></g></svg>